<svg xmlns="http://www.w3.org/2000/svg" version="1.1" viewBox="0 0 100 100">
 <path d="m85.219 23.844h-15.844c-0.21875-4.5-3.9688-8.125-8.5312-8.125h-21.688c-4.5625 0-8.3125 3.625-8.5312 8.125h-15.844c-4.6875 0-8.5312 3.8438-8.5312 8.5625v43.312c0 4.7188 3.8438 8.5625 8.5312 8.5625h70.438c4.6875 0 8.5312-3.8438 8.5312-8.5625v-43.312c0-4.7188-3.8438-8.5625-8.5312-8.5625zm-35.219 48.969c-10.344 0-18.75-8.4062-18.75-18.75s8.4062-18.75 18.75-18.75 18.75 8.4062 18.75 18.75-8.4062 18.75-18.75 18.75z"/>
 <path d="m62.5 54.062c0 6.9023-5.5977 12.5-12.5 12.5s-12.5-5.5977-12.5-12.5 5.5977-12.5 12.5-12.5 12.5 5.5977 12.5 12.5"/>
</svg>