<svg xmlns="http://www.w3.org/2000/svg" version="1.1" viewBox="0 0 100 100">
 <path d="m73.078 43.16h-2.5312l0.003906-12.609c0-11.301-9.25-20.551-20.551-20.551s-20.551 9.25-20.551 20.551v12.609h-2.5312c-4.0195 0-7.3086 3.2891-7.3086 7.3086v32.219c0 4.0195 3.2891 7.3086 7.3086 7.3086h46.16c4.0195 0 7.3086-3.2891 7.3086-7.3086l0.003906-32.219c0-4.0195-3.2891-7.3086-7.3125-7.3086zm-34.5-12.609c0-6.2812 5.1406-11.422 11.422-11.422s11.422 5.1406 11.422 11.422v12.609h-22.844zm14.5 35.5v9.4492c0 1.6914-1.3789 3.0781-3.0781 3.0781-1.6914 0-3.0781-1.3789-3.0781-3.0781v-9.4492c-1.8398-1.0586-3.0703-3.0508-3.0703-5.3203 0-3.3984 2.75-6.1484 6.1484-6.1484s6.1484 2.75 6.1484 6.1484c0 2.2695-1.2383 4.2578-3.0703 5.3203z" fill-rule="evenodd"/>
</svg>