<svg xmlns="http://www.w3.org/2000/svg" xmlns:xlink="http://www.w3.org/1999/xlink" version="1.1" x="0px" y="0px" viewBox="0 0 100 100" enable-background="new 0 0 100 100" xml:space="preserve"><g><path d="M16.255,30.883H83.73c6.219,0,11.258-4.467,11.258-10.001c0-5.516-5.039-9.999-11.258-9.999H16.255   c-6.204,0-11.244,4.482-11.244,9.999C5.012,26.416,10.052,30.883,16.255,30.883z"/><path d="M83.73,40H16.255c-6.204,0-11.244,4.482-11.244,10c0,5.532,5.04,10,11.244,10H83.73c6.219,0,11.258-4.468,11.258-10   C94.988,44.482,89.949,40,83.73,40z" /><path d="M83.73,69.115H16.255c-6.204,0-11.244,4.482-11.244,10.001c0,5.531,5.04,9.999,11.244,9.999H83.73   c6.219,0,11.258-4.468,11.258-9.999C94.988,73.598,89.949,69.115,83.73,69.115z"/></g></svg>