<svg xmlns="http://www.w3.org/2000/svg" version="1.1" viewBox="0 0 100 100">
 <path d="m78.445 46.848-53.242-26.863c-0.58203-0.36328-1.2461-0.55469-1.9336-0.55469-1.9141 0-3.5195 1.4961-3.6523 3.4062-0.019532 0.29687 0.011718 0.59375 0.09375 0.87891l6.375 21.723c0.0625 0.76953 0.36719 1.4961 0.88672 2.0898 0.60547 0.69531 1.4297 1.1289 2.3359 1.2344l6.9648 1.2383-6.9609 1.2422c-0.91016 0.10547-1.7344 0.53906-2.3359 1.2344-0.51562 0.59375-0.82031 1.3203-0.88672 2.0898l-6.375 21.727c-0.082032 0.28516-0.11719 0.58203-0.09375 0.875 0.13281 1.9102 1.7383 3.4062 3.6523 3.4062 0.6875 0 1.3516-0.19141 1.9336-0.55469l53.242-26.859c1.1953-0.60156 1.9414-1.8125 1.9414-3.1523-0.003906-1.3477-0.74609-2.5547-1.9453-3.1602zm-52.926 27.406 5.3438-18.211 20.09-3.582c1.1914-0.21094 2.0625-1.25 2.0625-2.4609s-0.86719-2.25-2.0625-2.4609l-20.09-3.582-5.3438-18.211 48.074 24.254z"/>
</svg>